<svg xmlns="http://www.w3.org/2000/svg" xmlns:xlink="http://www.w3.org/1999/xlink" version="1.1" x="0px" y="0px" viewBox="0 0 100 125" enable-background="new 0 0 100 100" xml:space="preserve"><path d="M62.618,92.341c-10.961,0-19.878-8.917-19.878-19.877c0-10.961,8.917-19.878,19.878-19.878  c10.96,0,19.878,8.917,19.878,19.878C82.496,83.424,73.578,92.341,62.618,92.341z M62.618,55.035  c-9.61,0-17.428,7.818-17.428,17.429c0,9.609,7.818,17.428,17.428,17.428s17.428-7.818,17.428-17.428  C80.045,62.854,72.228,55.035,62.618,55.035z M62.129,87.809c-0.677,0-1.225-0.548-1.225-1.225v-1.36  c-2.648-0.34-5.084-1.374-6.048-2.262c-0.498-0.458-0.53-1.233-0.072-1.731c0.458-0.497,1.233-0.529,1.731-0.071  c0.607,0.559,2.412,1.29,4.389,1.59V72.318c-3.558-1.975-7.507-4.239-6.11-9.539c0.55-2.085,2.428-3.836,4.903-4.57  c0.399-0.119,0.802-0.21,1.208-0.273v-1.452c0-0.677,0.548-1.225,1.225-1.225s1.225,0.548,1.225,1.225v1.395  c2.224,0.238,4.421,1.262,6.343,3.002c0.501,0.455,0.539,1.229,0.085,1.73c-0.454,0.502-1.228,0.539-1.73,0.086  c-1.686-1.528-3.331-2.147-4.697-2.339v10.509c4.008,2.194,7.081,4.067,6.556,8.643c-0.298,2.601-1.681,4.431-3.997,5.292  c-0.802,0.299-1.671,0.46-2.559,0.515v1.269C63.354,87.261,62.806,87.809,62.129,87.809z M63.354,73.672v9.188  c0.602-0.048,1.181-0.16,1.705-0.355c1.435-0.534,2.226-1.605,2.417-3.275C67.773,76.642,66.507,75.473,63.354,73.672z   M60.904,60.43c-0.196,0.04-0.367,0.085-0.511,0.128c-1.66,0.492-2.897,1.583-3.23,2.847c-0.746,2.829,0.537,4.206,3.741,6.094  V60.43z M35.529,73.809H21.585c-2.25,0-4.081-1.708-4.081-3.809V11.489c0-2.112,1.831-3.83,4.081-3.83h39.091  c2.249,0,4.079,1.718,4.079,3.83v33.444c0,0.677-0.548,1.225-1.225,1.225s-1.225-0.548-1.225-1.225V11.489  c0-0.813-0.858-1.381-1.628-1.381H21.585c-0.771,0-1.63,0.567-1.63,1.381V70c0,0.813,0.843,1.359,1.63,1.359h13.944  c0.677,0,1.225,0.548,1.225,1.225S36.206,73.809,35.529,73.809z M38.679,67.158h-0.465c-1.361,0-2.51-1.151-2.51-2.515v-4.711  c0-1.396,1.149-2.573,2.51-2.573h3.615c0.677,0,1.225,0.548,1.225,1.225s-0.548,1.225-1.225,1.225h-3.615  c-0.003,0.01-0.06,0.081-0.06,0.124v4.711l0.525,0.065c0.677,0,1.225,0.548,1.225,1.225S39.356,67.158,38.679,67.158z   M30.623,67.158H24.79c-1.338,0-2.386-1.104-2.386-2.515v-4.711c0-1.419,1.07-2.573,2.386-2.573h5.833  c1.301,0,2.282,1.106,2.282,2.573v4.711C32.904,66.101,31.945,67.158,30.623,67.158z M24.879,59.809  c-0.012,0.028-0.024,0.069-0.024,0.124v4.711c0,0.071,0.021,0.102,0.021,0.103l5.575-0.036c0.002-0.02,0.003-0.042,0.003-0.066  v-4.711c0-0.049-0.004-0.09-0.011-0.124H24.879z M44.047,54.908h-5.833c-1.337,0-2.51-1.248-2.51-2.672v-4.711  c0-1.355,1.103-2.416,2.51-2.416h5.833c1.406,0,2.507,1.061,2.507,2.416v4.711C46.554,53.66,45.382,54.908,44.047,54.908z   M44.104,47.525l-5.89,0.033l-0.06,4.678c0,0.075,0.088,0.208,0.146,0.237l5.682-0.015c0.055-0.046,0.122-0.156,0.122-0.223V47.525z   M30.623,54.908H24.79c-1.315,0-2.386-1.198-2.386-2.672v-4.711c0-1.378,1.026-2.416,2.386-2.416h5.833  c1.343,0,2.282,0.993,2.282,2.416v4.711C32.904,53.76,31.923,54.908,30.623,54.908z M24.915,52.459h5.507  c0.018-0.057,0.032-0.134,0.032-0.223V47.56l-5.595-0.001l-0.004,4.678C24.854,52.323,24.885,52.407,24.915,52.459z M50.579,51.758  c-0.677,0-1.225-0.548-1.225-1.225v-3.008c0-1.4,0.961-2.416,2.285-2.416h5.832c1.359,0,2.384,1.038,2.384,2.416v0.208  c0,0.677-0.548,1.225-1.225,1.225s-1.225-0.548-1.225-1.225v-0.173l-5.6-0.002v2.975C51.804,51.21,51.256,51.758,50.579,51.758z   M57.471,42.309h-5.832c-1.324,0-2.285-1.043-2.285-2.479v-4.712c0-1.487,0.982-2.608,2.285-2.608h5.832  c1.314,0,2.384,1.17,2.384,2.608v4.712C59.854,41.22,58.807,42.309,57.471,42.309z M51.805,39.859h5.666l-0.066-0.03v-4.712  c0-0.067-0.019-0.123-0.037-0.159h-5.545c-0.01,0.043-0.018,0.097-0.018,0.159v4.712C51.804,39.84,51.804,39.85,51.805,39.859z   M44.047,42.309h-5.833c-1.384,0-2.51-1.112-2.51-2.479v-4.712c0-1.39,1.173-2.608,2.51-2.608h5.833  c1.335,0,2.507,1.219,2.507,2.608v4.712C46.554,41.196,45.429,42.309,44.047,42.309z M43.993,34.95l-5.779,0.008  c0.008,0.012-0.06,0.104-0.06,0.159v4.712l5.893,0.03l0.057-0.03v-4.712C44.104,35.063,44.037,34.97,43.993,34.95z M30.623,42.309  H24.79c-1.338,0-2.386-1.089-2.386-2.479v-4.712c0-1.438,1.07-2.608,2.386-2.608h5.833c1.301,0,2.282,1.121,2.282,2.608v4.712  C32.904,41.266,31.945,42.309,30.623,42.309z M24.892,34.958c-0.018,0.036-0.037,0.092-0.037,0.159v4.712l5.599,0.029  c0-0.01,0-0.02,0-0.029v-4.712c0-0.063-0.008-0.116-0.018-0.159H24.892z M55.936,26.559H26.323c-2.161,0-3.918-1.758-3.918-3.919  v-4.063c0-2.16,1.758-3.918,3.918-3.918h29.613c2.161,0,3.919,1.758,3.919,3.918v4.063C59.854,24.801,58.096,26.559,55.936,26.559z   M26.323,17.108c-0.81,0-1.468,0.659-1.468,1.469v4.063c0,0.811,0.659,1.47,1.468,1.47h29.613c0.81,0,1.469-0.659,1.469-1.47v-4.063  c0-0.81-0.659-1.469-1.469-1.469H26.323z"/><text x="0" y="115" fill="#000000" font-size="5px" font-weight="bold" font-family="'Helvetica Neue', Helvetica, Arial-Unicode, Arial, Sans-serif">Created by H Alberto Gongora</text><text x="0" y="120" fill="#000000" font-size="5px" font-weight="bold" font-family="'Helvetica Neue', Helvetica, Arial-Unicode, Arial, Sans-serif">from the Noun Project</text></svg>